<?xml version="1.0" ?><svg viewBox="0 0 512 512" xmlns="http://www.w3.org/2000/svg"><title/><g data-name="/ OUTLINE" id="_OUTLINE"><path d="M424,160a32.03635,32.03635,0,0,0,32-32v-8h40V68a28.03935,28.03935,0,0,0-24-27.70972V40H406.9873A32.05723,32.05723,0,0,0,376,16H184a32.03635,32.03635,0,0,0-32,32V176H72a24.0275,24.0275,0,0,0-24,24V432H16v40a24.0275,24.0275,0,0,0,24,24H472a24.0275,24.0275,0,0,0,24-24V432H464V200a24.0275,24.0275,0,0,0-24-24H360V160Zm32-92a12,12,0,0,1,24,0v36H456ZM408,56h34.707A27.83231,27.83231,0,0,0,440,68v60a16,16,0,0,1-32,0Zm-48-8a16,16,0,0,1,32,0v80a31.79171,31.79171,0,0,0,4.30518,16H360ZM168,48a16.01833,16.01833,0,0,1,16-16H348.29492A31.80424,31.80424,0,0,0,344,48V272H168ZM360,288V264h16v40H136V264h16v24ZM480,448v24a8.00917,8.00917,0,0,1-8,8H40a8.00917,8.00917,0,0,1-8-8V448H201.37305a7.94524,7.94524,0,0,1,5.65625,2.34326l6.62695,6.627A23.84385,23.84385,0,0,0,230.627,464h50.7461a23.84385,23.84385,0,0,0,16.9707-7.02979l6.627-6.627A7.94524,7.94524,0,0,1,310.627,448ZM440,192a8.00917,8.00917,0,0,1,8,8V432H310.627a23.84385,23.84385,0,0,0-16.9707,7.02979l-6.627,6.627A7.94524,7.94524,0,0,1,281.37305,448H230.627a7.94524,7.94524,0,0,1-5.65625-2.34326l-6.62695-6.627A23.84385,23.84385,0,0,0,201.37305,432H64V200a8.00917,8.00917,0,0,1,8-8h80v56H120v72H392V248H360V192Z"/><path d="M184,208H328V96H184Zm104-96h24v16H288Zm0,32h24v16H288Zm0,32h24v16H288Zm-88-64h72v16H200Zm0,32h72v16H200Zm0,32h72v16H200Z"/><rect height="16" width="32" x="296" y="232"/><rect height="16" width="80" x="184" y="232"/><path d="M239.0293,407.02979l11.31445,11.31347a7.99945,7.99945,0,0,1,11.31348,0l11.3125-11.31445a23.99949,23.99949,0,0,0-33.94043.001Z"/><path d="M216.40137,384.40234l11.31445,11.31348a39.99956,39.99956,0,0,1,56.56836,0l11.31445-11.31348a56.0008,56.0008,0,0,0-79.19726,0Z"/><path d="M193.77441,361.7749l11.31446,11.31348a71.99849,71.99849,0,0,1,101.82226,0l11.31446-11.31348a87.99975,87.99975,0,0,0-124.45118,0Z"/><rect height="16" width="96" x="208" y="56"/></g></svg>